<?xml version="1.0" encoding="UTF-8" standalone="no"?>
<svg id="svg5712" xmlns:rdf="http://www.w3.org/1999/02/22-rdf-syntax-ns#" xmlns="http://www.w3.org/2000/svg" height="338.67mm" width="592.67mm" version="1.1" xmlns:cc="http://creativecommons.org/ns#" xmlns:dc="http://purl.org/dc/elements/1.1/" viewBox="0 0 2100 1200">
<defs id="defs5714">
<pattern id="pattern6908" width="300" patternUnits="userSpaceOnUse" patternTransform="translate(196.13 263.91)" height="300">
<path id="path18" d="m127.53 0c-8.01 6.5229-16.53 12.414-25.74 17.073-16.53 8.228-34.838 13.304-53.193 12.802-8.516-0.182-16.644-2.66-24.937-4.101 5.305 15.349 5.211 32.244 2.185 48.249-4.313 19.476-13.51 37.787-25.845 53.597v44.377c6.4916 7.9887 12.353 16.477 16.993 25.649 8.2283 16.528 13.304 34.835 12.802 53.191-0.18269 8.5157-2.6572 16.644-4.099 24.937 0.95936-0.33152 1.9239-0.6409 2.8947-0.93084 14.562-4.3492 30.347-4.0905 45.351-1.254 19.62 4.3457 38.056 13.651 53.95 26.124-0.11766 0.0962-0.23839 0.18854-0.35631 0.2845h44.376c10.12-7.9465 21.268-14.568 33.071-19.542 10.818-4.9022 22.508-7.3833 34.192-8.6842 11.676-1.1935 23.393 0.59338 34.452 4.0355-1.2934-8.5782-3.9116-16.977-3.6681-25.757-0.41966-22.568 7.5057-44.699 19.227-63.996 3.174-5.0375 6.7158-9.8345 10.535-14.405 0.094 0.11526 0.18518 0.23261 0.27897 0.34803v-44.377c-0.00079 0.001-0.001 0.001-0.003 0.003-7.9821-10.147-14.629-21.331-19.619-33.173-4.9022-10.818-7.386-22.508-8.6869-34.193-1.1935-11.677 0.59339-23.393 4.0355-34.452-8.5781 1.2934-16.977 3.9116-25.757 3.6681-22.568 0.41966-44.699-7.5058-63.996-19.227-4.9125-3.0953-9.5967-6.5373-14.065-10.248h-44.376zm22.188 21.65c6.6037 8.0893 12.565 16.695 17.272 26 8.2283 16.528 13.304 34.832 12.802 53.188-0.18268 8.5157-2.6572 16.644-4.099 24.937 0.95934-0.33153 1.9239-0.64091 2.8947-0.93086 14.562-4.3492 30.347-4.0878 45.351-1.2512 19.62 4.3457 38.056 13.648 53.95 26.122-8.1203 6.6387-16.762 12.632-26.108 17.36-16.527 8.2284-34.832 13.304-53.187 12.803-8.5156-0.18267-16.644-2.66-24.936-4.1018 5.3043 15.35 5.2077 32.242 2.1821 48.246-4.3136 19.476-13.507 37.788-25.842 53.602-7.982-10.147-14.632-21.328-19.622-33.171-4.9022-10.818-7.3832-22.508-8.6841-34.193-1.1935-11.677 0.59061-23.393 4.0327-34.452-8.5781 1.2934-16.975 3.9116-25.754 3.6681-22.568 0.41966-44.702-7.5058-63.998-19.227-4.9119-3.0949-9.5944-6.5378-14.062-10.248 10.121-7.9472 21.267-14.571 33.071-19.545 10.818-4.9022 22.508-7.3833 34.192-8.6842 11.676-1.1935 23.393 0.59338 34.452 4.0355-1.2934-8.5782-3.9116-16.977-3.6681-25.757-0.41965-22.568 7.5057-44.699 19.227-63.996 3.174-5.0375 6.7158-9.8345 10.535-14.405zm123.06 6.5574c-4.2121 5.7842-7.7882 12.066-10.532 18.669-5.1152 13.729-6.358 29.012-3.2869 43.54 1.0478 6.8601 3.1911 13.444 5.7121 19.893 0.84032 2.1496 1.7203 4.2838 2.6185 6.4082-4.9341-1.3027-9.4885-3.7761-14.435-5.0409-9.1681-2.1171-18.434-4.3159-27.837-4.3835-9.2384-0.0658-18.451 1.4767-27.11 4.436-7.095 2.3022-13.097 6.8486-19.282 10.797 4.3123-6.3955 8.8669-12.803 11.145-20.321 7.6921-22.147 3.8135-47.05-5.817-68.399 14.123 6.1856 29.391 9.9196 44.722 9.8747 10.68-0.25169 21.447-2.2012 30.916-7.1208 4.786-2.1276 8.9671-5.2964 13.186-8.3528zm-245.87 0.4972c6.3955 4.3123 12.803 8.867 20.321 11.145 22.147 7.6922 47.052 3.8136 68.401-5.8171-6.1855 14.123-9.9222 29.392-9.8774 44.722 0.25169 10.681 2.2012 21.447 7.1208 30.917 2.1276 4.786 5.2963 8.9672 8.3527 13.187-5.7841-4.2122-12.066-7.7883-18.669-10.532-13.729-5.1153-29.012-6.3581-43.539-3.287-6.86 1.0478-13.444 3.1884-19.893 5.7094-2.1496 0.84035-4.2838 1.7231-6.4081 2.6213 1.3027-4.9341 3.7761-9.4914 5.0409-14.438 2.1171-9.1682 4.3186-18.432 4.3862-27.834 0.0658-9.2385-1.4794-18.451-4.4387-27.111-2.304-7.094-6.851-13.096-10.799-19.282zm162.57 10.678c7.3548 12.097 15.677 23.6 22.561 35.963-7.1507 11.419-14.729 22.551-21.727 34.06 11.707-6.8757 23.084-14.282 34.43-21.73 12.224 6.8448 23.522 15.188 35.504 22.415-0.32107-0.64864-0.65322-1.2897-0.99713-1.9252-2.4074-4.4484-5.3302-8.6005-8.1483-12.816-4.619-6.6407-8.912-13.489-13.255-20.316 6.4683-11.977 15.246-22.507 21.453-34.632-11.598 6.9592-22.933 14.347-34.184 21.84-12.065-7.3103-23.423-15.787-35.637-22.86zm-79.43 0.17953c-12.096 7.355-23.599 15.674-35.962 22.559-11.419-7.151-22.547-14.727-34.057-21.725 6.876 11.707 14.279 23.084 21.727 34.431-6.844 12.223-15.187 23.522-22.414 35.503 0.64865-0.32108 1.2925-0.65323 1.928-0.99714 4.4484-2.4074 8.5976-5.3303 12.814-8.1483 6.6406-4.619 13.489-8.9121 20.315-13.256 11.977 6.4684 22.507 15.246 34.632 21.454-1.7398-2.8996-3.5067-5.7814-5.295-8.651-5.368-8.606-10.928-17.092-16.548-25.53 7.31-12.065 15.788-23.424 22.858-35.638zm12.728 138.65c-4.2121 5.7842-7.7882 12.066-10.532 18.669-5.1152 13.729-6.3608 29.012-3.2897 43.54 1.0478 6.8601 3.1911 13.444 5.7121 19.893 0.84034 2.1496 1.723 4.2838 2.6213 6.4082-4.9341-1.3027-9.4913-3.7761-14.438-5.0409-9.1681-2.1171-18.434-4.3186-27.837-4.3863-9.2384-0.0658-18.451 1.4794-27.11 4.4388-7.0949 2.3022-13.094 6.8486-19.28 10.797 4.3123-6.3955 8.8641-12.803 11.142-20.321 7.6921-22.147 3.8135-47.053-5.817-68.402 14.123 6.1856 29.391 9.9223 44.722 9.8775 10.68-0.25169 21.447-2.2012 30.916-7.1208 4.786-2.1276 8.9698-5.2964 13.189-8.3527zm54.129 0.49718c6.3955 4.3123 12.803 8.867 20.321 11.145 22.147 7.6922 47.049 3.8136 68.399-5.8171-6.1855 14.123-9.9195 29.392-9.8746 44.722 0.25168 10.681 2.2012 21.447 7.1208 30.917 2.1276 4.786 5.2963 8.9671 8.3527 13.186-5.7841-4.2122-12.066-7.7883-18.669-10.532-13.729-5.1153-29.012-6.3581-43.539-3.287-6.86 1.0478-13.444 3.1884-19.893 5.7094-2.1496 0.84033-4.2838 1.723-6.4081 2.6213 1.3027-4.9341 3.776-9.4914 5.0409-14.438 2.1171-9.1681 4.3158-18.434 4.3835-27.837 0.0658-9.2385-1.4766-18.451-4.436-27.111-2.3022-7.095-6.8485-13.095-10.797-19.28zm-137.43 10.678c7.3548 12.097 15.677 23.6 22.561 35.963-7.1507 11.419-14.729 22.548-21.727 34.057 11.707-6.8757 23.084-14.279 34.43-21.727 12.224 6.8448 23.522 15.188 35.504 22.415-0.32106-0.64866-0.65322-1.2897-0.99711-1.9252-2.4074-4.4484-5.3302-8.6005-8.1483-12.816-4.619-6.6407-8.912-13.489-13.255-20.316 6.4683-11.977 15.249-22.507 21.456-34.632-11.593 6.95-22.93 14.34-34.181 21.83-12.065-7.31-23.424-15.78-35.637-22.86zm220.57 0.17955c-12.097 7.3549-23.6 15.674-35.963 22.558-11.419-7.1508-22.55-14.729-34.06-21.727 6.8757 11.707 14.281 23.087 21.73 34.433-6.8448 12.224-15.188 23.523-22.415 35.505 0.64864-0.32107 1.2897-0.65598 1.9252-0.99989 4.4484-2.4074 8.6004-5.3275 12.816-8.1456 6.6406-4.619 13.489-8.9149 20.315-13.258 11.977 6.4684 22.507 15.249 34.632 21.456-1.7398-2.8996-3.5068-5.7815-5.295-8.6511-5.3647-8.6088-10.925-17.095-16.545-25.533 7.3103-12.065 15.787-23.424 22.859-35.637z"/>
</pattern>
</defs>
<g id="layer1" transform="translate(-196.13 636.09)">
<rect id="rect6906" height="1200" width="2100" y="-636.09" x="196.13" fill="url(#pattern6908)"/>
</g>
</svg>
